<mxfile host="app.diagrams.net" modified="2023-12-11T08:53:51.710Z" agent="Mozilla/5.0 (X11; Linux x86_64) AppleWebKit/537.36 (KHTML, like Gecko) Chrome/113.0.0.0 Safari/537.36" etag="7I4tbT5KrIBRHuiVuJiF" version="22.1.7" type="github">
  <diagram id="Sj_QsXj8n8EclXEECuJ8" name="第 1 页">
    <mxGraphModel dx="3116" dy="770" grid="1" gridSize="10" guides="1" tooltips="1" connect="1" arrows="1" fold="1" page="1" pageScale="1" pageWidth="850" pageHeight="1100" math="0" shadow="0">
      <root>
        <mxCell id="0" />
        <mxCell id="1" parent="0" />
        <mxCell id="jNDHMeCrCWMadsjBl1Mv-1" value="&lt;h1&gt;当前系统中的问题&lt;/h1&gt;&lt;p&gt;&lt;b&gt;&lt;font style=&quot;font-size: 14px;&quot;&gt;1. 无法明确的获取到当前客户正在那个聊天流程中, 比如客户是在排队中 还是 在会话中? 现在只能以一个顺序的判断各个流程的开闭状态来判断当前客户的接待状态&lt;/font&gt;&lt;/b&gt;&lt;/p&gt;&lt;p&gt;&lt;b&gt;&lt;font style=&quot;font-size: 14px;&quot;&gt;&amp;nbsp; &amp;nbsp;就以分配会话为例(下面的判断必须逐个判断. 否则就会出现问题):&lt;/font&gt;&lt;/b&gt;&lt;/p&gt;&lt;p&gt;&lt;b&gt;&lt;font style=&quot;font-size: 14px;&quot;&gt;&amp;nbsp; &amp;nbsp; &amp;nbsp; &amp;nbsp; 1. 如果客户已经有一个开启的会话, 那么他就是在会话中&lt;/font&gt;&lt;/b&gt;&lt;/p&gt;&lt;p&gt;&lt;b&gt;&lt;font style=&quot;font-size: 14px;&quot;&gt;&lt;span style=&quot;white-space: pre;&quot;&gt;&#x9;&lt;/span&gt;2. 如果客户已经有一个开启的排队, 那么他就是在排队中&lt;/font&gt;&lt;/b&gt;&lt;/p&gt;&lt;p&gt;&lt;b&gt;&lt;font style=&quot;font-size: 14px;&quot;&gt;&lt;span style=&quot;white-space: pre;&quot;&gt;&#x9;&lt;/span&gt;3. 如果客户既不排队 也不会话, 才能真正的创建会话.&lt;br&gt;&lt;/font&gt;&lt;/b&gt;&lt;/p&gt;&lt;p&gt;&lt;b&gt;&lt;font style=&quot;font-size: 14px;&quot;&gt;&amp;nbsp; &amp;nbsp;每次分配会话都要执行上面的判断,很蛋疼. 就因为我们拿不到一个客户当前的所处的具体服务阶段&lt;/font&gt;&lt;/b&gt;&lt;/p&gt;&lt;p&gt;&lt;b&gt;&lt;font style=&quot;font-size: 14px;&quot;&gt;2. 即将引入的机器人功能中,涉及到转人工的状态(即需要明确的知道当前客户是否在机器人服务中),这个转人工的状态没有合适的主体进行存储.&lt;/font&gt;&lt;/b&gt;&lt;/p&gt;&lt;p&gt;&lt;b&gt;&lt;font style=&quot;font-size: 14px;&quot;&gt;&lt;br&gt;&lt;/font&gt;&lt;/b&gt;&lt;/p&gt;&lt;p&gt;&lt;b&gt;&lt;font style=&quot;font-size: 14px;&quot;&gt;3. 无法直接获取到一个客户从进线到离开中经历的所有流程,&amp;nbsp; 也无法通过一个流程方便的反查出客户在本次进线所有经历的流程. 简而言之就是没有一个实体串联其一个客户在一次进线中经历的所有流程&lt;/font&gt;&lt;/b&gt;&lt;/p&gt;&lt;p&gt;&lt;b style=&quot;font-size: 14px; background-color: initial;&quot;&gt;&lt;br&gt;&lt;/b&gt;&lt;/p&gt;&lt;p&gt;&lt;b style=&quot;font-size: 14px; background-color: initial;&quot;&gt;4. IM系统整体的代码实现 和 整体概念 跟产品构想出现了偏差, 对后续实现产品需求会造成影响&lt;/b&gt;&lt;br&gt;&lt;/p&gt;&lt;p&gt;&lt;b&gt;&lt;font style=&quot;font-size: 14px;&quot;&gt;&lt;br&gt;&lt;/font&gt;&lt;/b&gt;&lt;/p&gt;" style="text;html=1;strokeColor=#1A1A1A;fillColor=none;spacing=5;spacingTop=-20;whiteSpace=wrap;overflow=hidden;rounded=0;labelBorderColor=none;fontFamily=Courier New;shadow=1;" vertex="1" parent="1">
          <mxGeometry x="-1295.61" y="50" width="932.61" height="400" as="geometry" />
        </mxCell>
        <mxCell id="jNDHMeCrCWMadsjBl1Mv-2" value="&lt;b&gt;&lt;font style=&quot;font-size: 18px;&quot;&gt;引入新概念&lt;/font&gt;&lt;/b&gt;" style="shape=umlFrame;whiteSpace=wrap;html=1;pointerEvents=0;width=150;height=40;fontFamily=Courier New;strokeColor=#1A1A1A;movable=1;resizable=1;rotatable=1;deletable=1;editable=1;locked=0;connectable=1;shadow=1;" vertex="1" parent="1">
          <mxGeometry x="-1299.3" y="580" width="940" height="1110" as="geometry" />
        </mxCell>
        <mxCell id="jNDHMeCrCWMadsjBl1Mv-3" value="&lt;font style=&quot;font-size: 16px;&quot;&gt;ChatJourney&lt;/font&gt;&lt;br&gt;用来描述客户的一次进线" style="swimlane;fontStyle=1;align=center;verticalAlign=top;childLayout=stackLayout;horizontal=1;startSize=50;horizontalStack=0;resizeParent=1;resizeParentMax=0;resizeLast=0;collapsible=1;marginBottom=0;whiteSpace=wrap;fontFamily=Courier New;html=1;swimlaneFillColor=none;strokeColor=#1A1A1A;shadow=1;" vertex="1" parent="1">
          <mxGeometry x="-1093" y="590" width="534.77" height="600" as="geometry" />
        </mxCell>
        <mxCell id="jNDHMeCrCWMadsjBl1Mv-4" value="&lt;font style=&quot;font-size: 14px;&quot;&gt;&lt;b&gt;+ stage: tinyint&amp;nbsp;&lt;/b&gt;Journey的阶段.&lt;br&gt;&lt;/font&gt;&lt;br&gt;&amp;nbsp; 在即时通讯服务客户的过程中, 可能会经过机器人服务, 排队, 留言, 人工接待等多个阶段.&lt;br&gt;&amp;nbsp;&amp;nbsp;&lt;b style=&quot;border-color: var(--border-color);&quot;&gt;stage&amp;nbsp;&lt;/b&gt;&lt;span style=&quot;border-color: var(--border-color);&quot;&gt;字段用来标记当前客户正处在那个服务阶段中&lt;/span&gt;&lt;br&gt;&lt;br&gt;&lt;b style=&quot;border-color: var(--border-color);&quot;&gt;stage 枚举&lt;br&gt;&lt;/b&gt;0: 初始化阶段&amp;nbsp; &amp;nbsp; &amp;nbsp; &amp;nbsp;未进入任何状态, 客户在Chat分配过程中会处于这个状态&lt;br&gt;1: 机器人阶段&amp;nbsp; &amp;nbsp; &amp;nbsp; &amp;nbsp;客户与机器人进行沟通&lt;br&gt;2: 无人接待阶段&amp;nbsp; &amp;nbsp; &amp;nbsp;所有座席都离线, 无人进行接待&lt;br&gt;3. 无人接待排队阶段&amp;nbsp; 所有座席都离线, 并进入排队&lt;br&gt;4. 客服忙碌排队阶段&amp;nbsp; 所有座席都忙碌, 并进入排队&lt;br&gt;5. 人工接待阶段&amp;nbsp; &amp;nbsp; &amp;nbsp;有客服空闲, 并进行了接待&lt;br&gt;&lt;br&gt;&lt;b&gt;每当阶段更新时, 就更新ChatJourney的stage字段&lt;/b&gt;" style="text;strokeColor=#1A1A1A;fillColor=none;align=left;verticalAlign=top;spacingLeft=4;spacingRight=4;overflow=hidden;rotatable=0;points=[[0,0.5],[1,0.5]];portConstraint=eastwest;whiteSpace=wrap;html=1;fontFamily=Courier New;shadow=1;" vertex="1" parent="jNDHMeCrCWMadsjBl1Mv-3">
          <mxGeometry y="50" width="534.77" height="230" as="geometry" />
        </mxCell>
        <mxCell id="jNDHMeCrCWMadsjBl1Mv-5" value="&lt;font style=&quot;&quot;&gt;&lt;b style=&quot;font-size: 14px;&quot;&gt;+ current_stage_id: bigint&amp;nbsp;&lt;/b&gt;&lt;span style=&quot;font-size: 14px;&quot;&gt;当前所处阶段ID&lt;/span&gt;&lt;br&gt;&lt;br&gt;&lt;font style=&quot;font-size: 12px;&quot;&gt;每当阶段变更时,就更新ChatJourney的&lt;b style=&quot;border-color: var(--border-color);&quot;&gt;current_stage_id&lt;/b&gt;&lt;/font&gt;&lt;br&gt;&lt;/font&gt;" style="text;strokeColor=#1A1A1A;fillColor=none;align=left;verticalAlign=top;spacingLeft=4;spacingRight=4;overflow=hidden;rotatable=0;points=[[0,0.5],[1,0.5]];portConstraint=eastwest;whiteSpace=wrap;html=1;fontFamily=Courier New;shadow=1;" vertex="1" parent="jNDHMeCrCWMadsjBl1Mv-3">
          <mxGeometry y="280" width="534.77" height="60" as="geometry" />
        </mxCell>
        <mxCell id="jNDHMeCrCWMadsjBl1Mv-6" value="&lt;font style=&quot;font-size: 14px;&quot;&gt;&lt;b&gt;+ state: tinyint &lt;/b&gt;用来表述本次客户进线旅程状态&lt;br&gt;&lt;br&gt;&lt;span style=&quot;border-color: var(--border-color); font-size: 12px;&quot;&gt;&lt;b&gt;state 枚举&lt;/b&gt;&lt;br&gt;0: 开始&lt;br&gt;1: 结束&lt;br style=&quot;border-color: var(--border-color);&quot;&gt;&lt;/span&gt;&lt;/font&gt;" style="text;strokeColor=#1A1A1A;fillColor=none;align=left;verticalAlign=top;spacingLeft=4;spacingRight=4;overflow=hidden;rotatable=0;points=[[0,0.5],[1,0.5]];portConstraint=eastwest;whiteSpace=wrap;html=1;fontFamily=Courier New;shadow=1;" vertex="1" parent="jNDHMeCrCWMadsjBl1Mv-3">
          <mxGeometry y="340" width="534.77" height="100" as="geometry" />
        </mxCell>
        <mxCell id="jNDHMeCrCWMadsjBl1Mv-7" value="&lt;font style=&quot;font-size: 14px;&quot;&gt;&lt;b&gt;+ channel: tinyint 用来记录当前客户路程的渠道&lt;/b&gt;&lt;br&gt;&lt;b style=&quot;border-color: var(--border-color); font-size: 12px;&quot;&gt;&lt;br style=&quot;border-color: var(--border-color);&quot;&gt;&lt;/b&gt;&lt;/font&gt;" style="text;strokeColor=#1A1A1A;fillColor=none;align=left;verticalAlign=top;spacingLeft=4;spacingRight=4;overflow=hidden;rotatable=0;points=[[0,0.5],[1,0.5]];portConstraint=eastwest;whiteSpace=wrap;html=1;fontFamily=Courier New;shadow=1;" vertex="1" parent="jNDHMeCrCWMadsjBl1Mv-3">
          <mxGeometry y="440" width="534.77" height="40" as="geometry" />
        </mxCell>
        <mxCell id="jNDHMeCrCWMadsjBl1Mv-8" value="&lt;font style=&quot;font-size: 14px;&quot;&gt;&lt;b&gt;+ channel_id:&amp;nbsp;&lt;/b&gt;&lt;b style=&quot;border-color: var(--border-color);&quot;&gt;bigint&lt;/b&gt;&lt;b&gt;&amp;nbsp;用来记录当前客户路程的渠道ID&lt;/b&gt;&lt;br&gt;&lt;b style=&quot;border-color: var(--border-color); font-size: 12px;&quot;&gt;&lt;br style=&quot;border-color: var(--border-color);&quot;&gt;&lt;/b&gt;&lt;/font&gt;" style="text;strokeColor=#1A1A1A;fillColor=none;align=left;verticalAlign=top;spacingLeft=4;spacingRight=4;overflow=hidden;rotatable=0;points=[[0,0.5],[1,0.5]];portConstraint=eastwest;whiteSpace=wrap;html=1;fontFamily=Courier New;shadow=1;" vertex="1" parent="jNDHMeCrCWMadsjBl1Mv-3">
          <mxGeometry y="480" width="534.77" height="40" as="geometry" />
        </mxCell>
        <mxCell id="jNDHMeCrCWMadsjBl1Mv-9" value="&lt;font style=&quot;font-size: 14px;&quot;&gt;&lt;b&gt;+ customer_id:&amp;nbsp;&lt;/b&gt;&lt;b style=&quot;border-color: var(--border-color);&quot;&gt;bigint&lt;/b&gt;&lt;b&gt;&amp;nbsp;用来记录当前客户路程的渠道ID&lt;/b&gt;&lt;br&gt;&lt;b style=&quot;border-color: var(--border-color); font-size: 12px;&quot;&gt;&lt;br style=&quot;border-color: var(--border-color);&quot;&gt;&lt;/b&gt;&lt;/font&gt;" style="text;strokeColor=#1A1A1A;fillColor=none;align=left;verticalAlign=top;spacingLeft=4;spacingRight=4;overflow=hidden;rotatable=0;points=[[0,0.5],[1,0.5]];portConstraint=eastwest;whiteSpace=wrap;html=1;fontFamily=Courier New;shadow=1;" vertex="1" parent="jNDHMeCrCWMadsjBl1Mv-3">
          <mxGeometry y="520" width="534.77" height="40" as="geometry" />
        </mxCell>
        <mxCell id="jNDHMeCrCWMadsjBl1Mv-10" value="&lt;b style=&quot;border-color: var(--border-color); color: rgb(0, 0, 0); font-size: 14px; font-style: normal; font-variant-ligatures: normal; font-variant-caps: normal; letter-spacing: normal; orphans: 2; text-align: left; text-indent: 0px; text-transform: none; widows: 2; word-spacing: 0px; -webkit-text-stroke-width: 0px; background-color: rgb(251, 251, 251); text-decoration-thickness: initial; text-decoration-style: initial; text-decoration-color: initial;&quot;&gt;+ tenant_id: bigint 租户ID&lt;/b&gt;" style="text;strokeColor=#1A1A1A;fillColor=none;align=left;verticalAlign=top;spacingLeft=4;spacingRight=4;overflow=hidden;rotatable=0;points=[[0,0.5],[1,0.5]];portConstraint=eastwest;whiteSpace=wrap;html=1;fontFamily=Courier New;shadow=1;" vertex="1" parent="jNDHMeCrCWMadsjBl1Mv-3">
          <mxGeometry y="560" width="534.77" height="40" as="geometry" />
        </mxCell>
        <mxCell id="jNDHMeCrCWMadsjBl1Mv-11" value="&lt;font style=&quot;font-size: 16px;&quot;&gt;ChatJourneyStage&lt;br&gt;&lt;/font&gt;&lt;div style=&quot;text-align: left;&quot;&gt;&lt;span style=&quot;background-color: initial;&quot;&gt;&amp;nbsp; 用来记录客户在一次进线中经历的一个具体阶段, 该数据关联一个唯一的ChatJourney 并 关联一个具体的流程(比如机器人会话, 人工会话, 排队记录)&lt;/span&gt;&lt;/div&gt;&lt;div style=&quot;text-align: left;&quot;&gt;&lt;span style=&quot;background-color: initial;&quot;&gt;&amp;nbsp; 每次客户在当前进线中进入一个新的阶段, 都会生成一个对应的ChatStage. 因此通过一个ChatJourney就可以按照顺序找到当前客户在当次尽显经历的所有阶段. 根据这些阶段就可以找到经历的具体流程&lt;/span&gt;&lt;/div&gt;" style="swimlane;fontStyle=1;align=center;verticalAlign=top;childLayout=stackLayout;horizontal=1;startSize=110;horizontalStack=0;resizeParent=1;resizeParentMax=0;resizeLast=0;collapsible=1;marginBottom=0;whiteSpace=wrap;fontFamily=Courier New;html=1;swimlaneFillColor=none;strokeColor=#1A1A1A;shadow=1;" vertex="1" parent="1">
          <mxGeometry x="-1093" y="1211" width="534.77" height="430" as="geometry" />
        </mxCell>
        <mxCell id="jNDHMeCrCWMadsjBl1Mv-12" value="&lt;font style=&quot;&quot;&gt;&lt;b style=&quot;font-size: 14px;&quot;&gt;+ chat_journey_id: bigint 所属chatJourney的ID&lt;/b&gt;&lt;br&gt;&lt;/font&gt;" style="text;strokeColor=#1A1A1A;fillColor=none;align=left;verticalAlign=top;spacingLeft=4;spacingRight=4;overflow=hidden;rotatable=0;points=[[0,0.5],[1,0.5]];portConstraint=eastwest;whiteSpace=wrap;html=1;fontFamily=Courier New;shadow=1;" vertex="1" parent="jNDHMeCrCWMadsjBl1Mv-11">
          <mxGeometry y="110" width="534.77" height="40" as="geometry" />
        </mxCell>
        <mxCell id="jNDHMeCrCWMadsjBl1Mv-13" value="&lt;font style=&quot;&quot;&gt;&lt;b style=&quot;font-size: 14px;&quot;&gt;+ category: tinyint 用来标记当前阶段对应的过程实体类型&lt;/b&gt;&lt;br&gt;&lt;span style=&quot;border-color: var(--border-color);&quot;&gt;&lt;br&gt;&lt;b style=&quot;border-color: var(--border-color);&quot;&gt;&lt;font style=&quot;font-size: 12px;&quot;&gt;category枚举&lt;br&gt;&lt;/font&gt;&lt;/b&gt;0: session&lt;br&gt;1: queue&lt;br&gt;2: robot_session&lt;br style=&quot;border-color: var(--border-color);&quot;&gt;&lt;/span&gt;&lt;/font&gt;" style="text;strokeColor=#1A1A1A;fillColor=none;align=left;verticalAlign=top;spacingLeft=4;spacingRight=4;overflow=hidden;rotatable=0;points=[[0,0.5],[1,0.5]];portConstraint=eastwest;whiteSpace=wrap;html=1;fontFamily=Courier New;shadow=1;" vertex="1" parent="jNDHMeCrCWMadsjBl1Mv-11">
          <mxGeometry y="150" width="534.77" height="120" as="geometry" />
        </mxCell>
        <mxCell id="jNDHMeCrCWMadsjBl1Mv-14" value="&lt;b style=&quot;border-color: var(--border-color); color: rgb(0, 0, 0); font-size: 14px; font-style: normal; font-variant-ligatures: normal; font-variant-caps: normal; letter-spacing: normal; orphans: 2; text-align: left; text-indent: 0px; text-transform: none; widows: 2; word-spacing: 0px; -webkit-text-stroke-width: 0px; background-color: rgb(251, 251, 251); text-decoration-thickness: initial; text-decoration-style: initial; text-decoration-color: initial;&quot;&gt;+ tenant_id:&amp;nbsp;&lt;b style=&quot;border-color: var(--border-color);&quot;&gt;bigint&lt;/b&gt;&amp;nbsp;租户ID&lt;/b&gt;" style="text;strokeColor=#1A1A1A;fillColor=none;align=left;verticalAlign=top;spacingLeft=4;spacingRight=4;overflow=hidden;rotatable=0;points=[[0,0.5],[1,0.5]];portConstraint=eastwest;whiteSpace=wrap;html=1;fontFamily=Courier New;shadow=1;" vertex="1" parent="jNDHMeCrCWMadsjBl1Mv-11">
          <mxGeometry y="270" width="534.77" height="40" as="geometry" />
        </mxCell>
        <mxCell id="jNDHMeCrCWMadsjBl1Mv-15" value="&lt;b style=&quot;border-color: var(--border-color); color: rgb(0, 0, 0); font-size: 14px; font-style: normal; font-variant-ligatures: normal; font-variant-caps: normal; letter-spacing: normal; orphans: 2; text-align: left; text-indent: 0px; text-transform: none; widows: 2; word-spacing: 0px; -webkit-text-stroke-width: 0px; background-color: rgb(251, 251, 251); text-decoration-thickness: initial; text-decoration-style: initial; text-decoration-color: initial;&quot;&gt;+ session_id:&amp;nbsp;&lt;b style=&quot;border-color: var(--border-color);&quot;&gt;&lt;b style=&quot;border-color: var(--border-color);&quot;&gt;bigint&lt;/b&gt;&lt;/b&gt;&amp;nbsp;人工会话ID&lt;/b&gt;" style="text;strokeColor=#1A1A1A;fillColor=none;align=left;verticalAlign=top;spacingLeft=4;spacingRight=4;overflow=hidden;rotatable=0;points=[[0,0.5],[1,0.5]];portConstraint=eastwest;whiteSpace=wrap;html=1;fontFamily=Courier New;shadow=1;" vertex="1" parent="jNDHMeCrCWMadsjBl1Mv-11">
          <mxGeometry y="310" width="534.77" height="40" as="geometry" />
        </mxCell>
        <mxCell id="jNDHMeCrCWMadsjBl1Mv-16" value="&lt;b style=&quot;border-color: var(--border-color); color: rgb(0, 0, 0); font-size: 14px; font-style: normal; font-variant-ligatures: normal; font-variant-caps: normal; letter-spacing: normal; orphans: 2; text-align: left; text-indent: 0px; text-transform: none; widows: 2; word-spacing: 0px; -webkit-text-stroke-width: 0px; background-color: rgb(251, 251, 251); text-decoration-thickness: initial; text-decoration-style: initial; text-decoration-color: initial;&quot;&gt;+ robot_session_id:&amp;nbsp;&lt;b style=&quot;border-color: var(--border-color);&quot;&gt;&lt;b style=&quot;border-color: var(--border-color);&quot;&gt;bigint&lt;/b&gt;&lt;/b&gt;&amp;nbsp;机器人会话ID&lt;/b&gt;" style="text;strokeColor=#1A1A1A;fillColor=none;align=left;verticalAlign=top;spacingLeft=4;spacingRight=4;overflow=hidden;rotatable=0;points=[[0,0.5],[1,0.5]];portConstraint=eastwest;whiteSpace=wrap;html=1;fontFamily=Courier New;shadow=1;" vertex="1" parent="jNDHMeCrCWMadsjBl1Mv-11">
          <mxGeometry y="350" width="534.77" height="40" as="geometry" />
        </mxCell>
        <mxCell id="jNDHMeCrCWMadsjBl1Mv-17" value="&lt;b style=&quot;border-color: var(--border-color); color: rgb(0, 0, 0); font-size: 14px; font-style: normal; font-variant-ligatures: normal; font-variant-caps: normal; letter-spacing: normal; orphans: 2; text-align: left; text-indent: 0px; text-transform: none; widows: 2; word-spacing: 0px; -webkit-text-stroke-width: 0px; background-color: rgb(251, 251, 251); text-decoration-thickness: initial; text-decoration-style: initial; text-decoration-color: initial;&quot;&gt;+ chat_queue_id:&amp;nbsp;&lt;b style=&quot;border-color: var(--border-color);&quot;&gt;&lt;b style=&quot;border-color: var(--border-color);&quot;&gt;bigint&lt;/b&gt;&lt;/b&gt;&amp;nbsp;排队记录ID&lt;/b&gt;" style="text;strokeColor=#1A1A1A;fillColor=none;align=left;verticalAlign=top;spacingLeft=4;spacingRight=4;overflow=hidden;rotatable=0;points=[[0,0.5],[1,0.5]];portConstraint=eastwest;whiteSpace=wrap;html=1;fontFamily=Courier New;shadow=1;" vertex="1" parent="jNDHMeCrCWMadsjBl1Mv-11">
          <mxGeometry y="390" width="534.77" height="40" as="geometry" />
        </mxCell>
        <mxCell id="jNDHMeCrCWMadsjBl1Mv-18" value="" style="endArrow=none;html=1;rounded=0;jumpStyle=none;strokeWidth=6;fontFamily=Courier New;shadow=1;" edge="1" parent="1">
          <mxGeometry width="50" height="50" relative="1" as="geometry">
            <mxPoint x="-1680" y="1880" as="sourcePoint" />
            <mxPoint x="2530" y="1880" as="targetPoint" />
          </mxGeometry>
        </mxCell>
        <mxCell id="jNDHMeCrCWMadsjBl1Mv-19" value="&lt;font style=&quot;font-size: 18px;&quot;&gt;会话分配&amp;nbsp; 与&amp;nbsp;&amp;nbsp;&lt;span style=&quot;&quot;&gt;ChatJourney&lt;/span&gt;&lt;/font&gt;" style="swimlane;childLayout=stackLayout;resizeParent=1;resizeParentMax=0;startSize=60;html=1;fillColor=#fad7ac;strokeColor=#b46504;fontFamily=Courier New;" vertex="1" parent="1">
          <mxGeometry x="-1430" y="2060" width="3270" height="1110" as="geometry" />
        </mxCell>
        <mxCell id="jNDHMeCrCWMadsjBl1Mv-20" value="客户进线" style="swimlane;startSize=20;html=1;fillColor=#f5f5f5;strokeColor=#666666;gradientColor=#b3b3b3;fontFamily=Courier New;" vertex="1" parent="jNDHMeCrCWMadsjBl1Mv-19">
          <mxGeometry y="60" width="240" height="1050" as="geometry">
            <mxRectangle y="60" width="40" height="420" as="alternateBounds" />
          </mxGeometry>
        </mxCell>
        <mxCell id="jNDHMeCrCWMadsjBl1Mv-21" value="&lt;font style=&quot;font-size: 18px;&quot;&gt;&lt;b&gt;Customer&lt;/b&gt;&lt;/font&gt;" style="outlineConnect=0;fontColor=#232F3E;gradientColor=none;strokeColor=#232F3E;fillColor=#ffffff;dashed=0;verticalLabelPosition=bottom;verticalAlign=top;align=center;html=1;fontSize=12;fontStyle=0;aspect=fixed;shape=mxgraph.aws4.resourceIcon;resIcon=mxgraph.aws4.users;fontFamily=Courier New;shadow=1;" vertex="1" parent="jNDHMeCrCWMadsjBl1Mv-20">
          <mxGeometry x="18.5" y="80" width="60" height="60" as="geometry" />
        </mxCell>
        <mxCell id="jNDHMeCrCWMadsjBl1Mv-22" value="客户通过&lt;br style=&quot;border-color: var(--border-color); font-size: 11px;&quot;&gt;&lt;span style=&quot;font-size: 11px; background-color: rgb(255, 255, 255);&quot;&gt;Web&lt;br&gt;Weixin&lt;br&gt;WhatsApp&lt;br&gt;渠道进线&lt;/span&gt;" style="rounded=1;whiteSpace=wrap;html=1;fontFamily=Courier New;glass=0;shadow=1;" vertex="1" parent="jNDHMeCrCWMadsjBl1Mv-20">
          <mxGeometry x="120" y="66.25" width="88.5" height="87.5" as="geometry" />
        </mxCell>
        <mxCell id="jNDHMeCrCWMadsjBl1Mv-23" value="" style="edgeStyle=orthogonalEdgeStyle;rounded=0;orthogonalLoop=1;jettySize=auto;html=1;entryX=0;entryY=0.5;entryDx=0;entryDy=0;fontFamily=Courier New;shadow=1;" edge="1" parent="jNDHMeCrCWMadsjBl1Mv-20" source="jNDHMeCrCWMadsjBl1Mv-21" target="jNDHMeCrCWMadsjBl1Mv-22">
          <mxGeometry x="0.177" relative="1" as="geometry">
            <mxPoint x="612.25" y="190" as="targetPoint" />
            <mxPoint as="offset" />
          </mxGeometry>
        </mxCell>
        <mxCell id="jNDHMeCrCWMadsjBl1Mv-24" style="edgeStyle=orthogonalEdgeStyle;rounded=0;orthogonalLoop=1;jettySize=auto;html=1;entryX=0;entryY=0.5;entryDx=0;entryDy=0;fontFamily=Courier New;" edge="1" parent="jNDHMeCrCWMadsjBl1Mv-19" source="jNDHMeCrCWMadsjBl1Mv-22" target="jNDHMeCrCWMadsjBl1Mv-51">
          <mxGeometry relative="1" as="geometry">
            <mxPoint x="415" y="122.5" as="targetPoint" />
          </mxGeometry>
        </mxCell>
        <mxCell id="jNDHMeCrCWMadsjBl1Mv-25" value="会话分配阶段" style="swimlane;startSize=20;html=1;fillColor=#f5f5f5;strokeColor=#666666;gradientColor=#b3b3b3;fontFamily=Courier New;" vertex="1" parent="jNDHMeCrCWMadsjBl1Mv-19">
          <mxGeometry x="240" y="60" width="3030" height="1050" as="geometry">
            <mxRectangle x="230" width="110" height="30" as="alternateBounds" />
          </mxGeometry>
        </mxCell>
        <mxCell id="jNDHMeCrCWMadsjBl1Mv-26" style="rounded=0;orthogonalLoop=1;jettySize=auto;html=1;entryX=0;entryY=0;entryDx=0;entryDy=0;entryPerimeter=0;edgeStyle=orthogonalEdgeStyle;fontFamily=Courier New;" edge="1" parent="jNDHMeCrCWMadsjBl1Mv-25" source="jNDHMeCrCWMadsjBl1Mv-52" target="jNDHMeCrCWMadsjBl1Mv-34">
          <mxGeometry relative="1" as="geometry">
            <Array as="points">
              <mxPoint x="130" y="730" />
            </Array>
          </mxGeometry>
        </mxCell>
        <mxCell id="jNDHMeCrCWMadsjBl1Mv-27" value="&lt;b&gt;&lt;font style=&quot;font-size: 14px;&quot;&gt;是&lt;/font&gt;&lt;/b&gt;" style="edgeLabel;html=1;align=center;verticalAlign=middle;resizable=0;points=[];fontFamily=Courier New;" vertex="1" connectable="0" parent="jNDHMeCrCWMadsjBl1Mv-26">
          <mxGeometry x="-0.2187" y="-1" relative="1" as="geometry">
            <mxPoint as="offset" />
          </mxGeometry>
        </mxCell>
        <mxCell id="jNDHMeCrCWMadsjBl1Mv-28" value="识别已有ChatJourney" style="swimlane;startSize=20;html=1;fillColor=#dae8fc;strokeColor=#6c8ebf;gradientColor=#7ea6e0;fontFamily=Courier New;rounded=1;shadow=1;" vertex="1" parent="jNDHMeCrCWMadsjBl1Mv-25">
          <mxGeometry x="240" y="20" width="540" height="1030" as="geometry">
            <mxRectangle x="550" width="140" height="30" as="alternateBounds" />
          </mxGeometry>
        </mxCell>
        <mxCell id="jNDHMeCrCWMadsjBl1Mv-29" style="edgeStyle=orthogonalEdgeStyle;rounded=0;orthogonalLoop=1;jettySize=auto;html=1;entryX=0.5;entryY=1;entryDx=0;entryDy=0;fontFamily=Courier New;" edge="1" parent="jNDHMeCrCWMadsjBl1Mv-28" source="jNDHMeCrCWMadsjBl1Mv-34" target="jNDHMeCrCWMadsjBl1Mv-36">
          <mxGeometry relative="1" as="geometry">
            <mxPoint x="110.87999999999987" y="520" as="targetPoint" />
          </mxGeometry>
        </mxCell>
        <mxCell id="jNDHMeCrCWMadsjBl1Mv-30" style="rounded=0;orthogonalLoop=1;jettySize=auto;html=1;entryX=0;entryY=1;entryDx=0;entryDy=0;exitX=0.75;exitY=0.5;exitDx=0;exitDy=0;exitPerimeter=0;fontFamily=Courier New;" edge="1" parent="jNDHMeCrCWMadsjBl1Mv-28" source="jNDHMeCrCWMadsjBl1Mv-34" target="jNDHMeCrCWMadsjBl1Mv-38">
          <mxGeometry relative="1" as="geometry" />
        </mxCell>
        <mxCell id="jNDHMeCrCWMadsjBl1Mv-31" style="rounded=0;orthogonalLoop=1;jettySize=auto;html=1;exitX=1;exitY=1;exitDx=0;exitDy=0;exitPerimeter=0;entryX=0;entryY=0.5;entryDx=0;entryDy=0;fontFamily=Courier New;" edge="1" parent="jNDHMeCrCWMadsjBl1Mv-28" source="jNDHMeCrCWMadsjBl1Mv-34" target="jNDHMeCrCWMadsjBl1Mv-41">
          <mxGeometry relative="1" as="geometry">
            <mxPoint x="170" y="780" as="targetPoint" />
          </mxGeometry>
        </mxCell>
        <mxCell id="jNDHMeCrCWMadsjBl1Mv-32" style="rounded=0;orthogonalLoop=1;jettySize=auto;html=1;exitX=0.5;exitY=0.75;exitDx=0;exitDy=0;exitPerimeter=0;entryX=0;entryY=0;entryDx=0;entryDy=0;fontFamily=Courier New;" edge="1" parent="jNDHMeCrCWMadsjBl1Mv-28" source="jNDHMeCrCWMadsjBl1Mv-34" target="jNDHMeCrCWMadsjBl1Mv-44">
          <mxGeometry relative="1" as="geometry" />
        </mxCell>
        <mxCell id="jNDHMeCrCWMadsjBl1Mv-33" style="edgeStyle=orthogonalEdgeStyle;rounded=0;orthogonalLoop=1;jettySize=auto;html=1;entryX=0.5;entryY=0;entryDx=0;entryDy=0;fontFamily=Courier New;" edge="1" parent="jNDHMeCrCWMadsjBl1Mv-28" source="jNDHMeCrCWMadsjBl1Mv-34" target="jNDHMeCrCWMadsjBl1Mv-47">
          <mxGeometry relative="1" as="geometry" />
        </mxCell>
        <mxCell id="jNDHMeCrCWMadsjBl1Mv-34" value="" style="shape=switch;whiteSpace=wrap;html=1;rotation=-45;fontFamily=Courier New;shadow=1;" vertex="1" parent="jNDHMeCrCWMadsjBl1Mv-28">
          <mxGeometry x="80.88" y="680" width="60" height="60" as="geometry" />
        </mxCell>
        <mxCell id="jNDHMeCrCWMadsjBl1Mv-35" style="edgeStyle=orthogonalEdgeStyle;rounded=0;orthogonalLoop=1;jettySize=auto;html=1;entryX=0.5;entryY=1;entryDx=0;entryDy=0;dashed=1;fontFamily=Courier New;" edge="1" parent="jNDHMeCrCWMadsjBl1Mv-28" source="jNDHMeCrCWMadsjBl1Mv-36" target="jNDHMeCrCWMadsjBl1Mv-37">
          <mxGeometry relative="1" as="geometry" />
        </mxCell>
        <mxCell id="jNDHMeCrCWMadsjBl1Mv-36" value="&lt;b style=&quot;border-color: var(--border-color);&quot;&gt;ChatJourney&lt;br&gt;机器人阶段&lt;/b&gt;" style="rounded=1;whiteSpace=wrap;html=1;fontFamily=Courier New;shadow=1;" vertex="1" parent="jNDHMeCrCWMadsjBl1Mv-28">
          <mxGeometry x="54.440000000000005" y="590" width="112.87" height="40" as="geometry" />
        </mxCell>
        <mxCell id="jNDHMeCrCWMadsjBl1Mv-37" value="&lt;p style=&quot;text-align: center; margin: 4px 0px 0px; text-decoration: underline;&quot;&gt;&lt;b&gt;Object: ChatJourney&lt;/b&gt;&lt;/p&gt;&lt;hr&gt;&lt;p style=&quot;margin:0px;margin-left:8px;&quot;&gt;stage =&amp;nbsp;1&lt;br&gt;state = 0&lt;br&gt;channel = 0&lt;/p&gt;" style="verticalAlign=top;align=left;overflow=fill;fontSize=12;fontFamily=Courier New;html=1;whiteSpace=wrap;fillColor=#d5e8d4;strokeColor=#82b366;rounded=1;shadow=1;" vertex="1" parent="jNDHMeCrCWMadsjBl1Mv-28">
          <mxGeometry x="50.88" y="470" width="120" height="90" as="geometry" />
        </mxCell>
        <mxCell id="jNDHMeCrCWMadsjBl1Mv-38" value="&lt;b style=&quot;border-color: var(--border-color);&quot;&gt;ChatJourney&lt;br&gt;无人接待阶段&lt;/b&gt;" style="rounded=1;whiteSpace=wrap;html=1;fontFamily=Courier New;shadow=1;" vertex="1" parent="jNDHMeCrCWMadsjBl1Mv-28">
          <mxGeometry x="258.57000000000005" y="590" width="112.87" height="40" as="geometry" />
        </mxCell>
        <mxCell id="jNDHMeCrCWMadsjBl1Mv-39" value="&lt;p style=&quot;text-align: center; margin: 4px 0px 0px; text-decoration: underline;&quot;&gt;&lt;b&gt;Object: ChatJourney&lt;/b&gt;&lt;/p&gt;&lt;hr&gt;&lt;p style=&quot;margin:0px;margin-left:8px;&quot;&gt;stage = 2&lt;br&gt;state = 0&lt;br&gt;channel = 0&lt;/p&gt;" style="verticalAlign=top;align=left;overflow=fill;fontSize=12;fontFamily=Courier New;html=1;whiteSpace=wrap;fillColor=#d5e8d4;strokeColor=#82b366;shadow=1;rounded=1;" vertex="1" parent="jNDHMeCrCWMadsjBl1Mv-28">
          <mxGeometry x="250" y="470" width="130" height="90" as="geometry" />
        </mxCell>
        <mxCell id="jNDHMeCrCWMadsjBl1Mv-40" style="edgeStyle=orthogonalEdgeStyle;rounded=0;orthogonalLoop=1;jettySize=auto;html=1;entryX=0.5;entryY=1;entryDx=0;entryDy=0;dashed=1;fontFamily=Courier New;" edge="1" parent="jNDHMeCrCWMadsjBl1Mv-28" source="jNDHMeCrCWMadsjBl1Mv-38" target="jNDHMeCrCWMadsjBl1Mv-39">
          <mxGeometry relative="1" as="geometry" />
        </mxCell>
        <mxCell id="jNDHMeCrCWMadsjBl1Mv-41" value="&lt;b style=&quot;border-color: var(--border-color);&quot;&gt;ChatJourney&lt;br&gt;无人接待排队阶段&lt;br&gt;&lt;/b&gt;" style="rounded=1;whiteSpace=wrap;html=1;fontFamily=Courier New;shadow=1;" vertex="1" parent="jNDHMeCrCWMadsjBl1Mv-28">
          <mxGeometry x="258.56000000000006" y="690" width="112.87" height="40" as="geometry" />
        </mxCell>
        <mxCell id="jNDHMeCrCWMadsjBl1Mv-42" value="&lt;p style=&quot;text-align: center; margin: 4px 0px 0px; text-decoration: underline;&quot;&gt;&lt;b&gt;Object: ChatJourney&lt;/b&gt;&lt;/p&gt;&lt;hr&gt;&lt;p style=&quot;margin:0px;margin-left:8px;&quot;&gt;stage = 3&amp;nbsp;&lt;br&gt;state = 0&lt;br&gt;channel = 0&lt;/p&gt;" style="verticalAlign=top;align=left;overflow=fill;fontSize=12;fontFamily=Courier New;html=1;whiteSpace=wrap;fillColor=#d5e8d4;strokeColor=#82b366;shadow=1;rounded=1;" vertex="1" parent="jNDHMeCrCWMadsjBl1Mv-28">
          <mxGeometry x="410" y="670" width="120" height="90" as="geometry" />
        </mxCell>
        <mxCell id="jNDHMeCrCWMadsjBl1Mv-43" style="edgeStyle=orthogonalEdgeStyle;rounded=0;orthogonalLoop=1;jettySize=auto;html=1;entryX=-0.043;entryY=0.493;entryDx=0;entryDy=0;dashed=1;entryPerimeter=0;fontFamily=Courier New;" edge="1" parent="jNDHMeCrCWMadsjBl1Mv-28" source="jNDHMeCrCWMadsjBl1Mv-41" target="jNDHMeCrCWMadsjBl1Mv-42">
          <mxGeometry relative="1" as="geometry" />
        </mxCell>
        <mxCell id="jNDHMeCrCWMadsjBl1Mv-44" value="&lt;b style=&quot;border-color: var(--border-color);&quot;&gt;ChatJourney&lt;br&gt;客服忙碌排队阶段&lt;/b&gt;" style="rounded=1;whiteSpace=wrap;html=1;fontFamily=Courier New;shadow=1;" vertex="1" parent="jNDHMeCrCWMadsjBl1Mv-28">
          <mxGeometry x="258.57000000000005" y="790" width="112.87" height="40" as="geometry" />
        </mxCell>
        <mxCell id="jNDHMeCrCWMadsjBl1Mv-45" value="&lt;p style=&quot;text-align: center; margin: 4px 0px 0px; text-decoration: underline;&quot;&gt;&lt;b&gt;Object: ChatJourney&lt;/b&gt;&lt;/p&gt;&lt;hr&gt;&lt;p style=&quot;margin:0px;margin-left:8px;&quot;&gt;stage = 4&lt;br&gt;state = 0&lt;br&gt;channel = 0&lt;/p&gt;" style="verticalAlign=top;align=left;overflow=fill;fontSize=12;fontFamily=Courier New;html=1;whiteSpace=wrap;fillColor=#d5e8d4;strokeColor=#82b366;shadow=1;rounded=1;" vertex="1" parent="jNDHMeCrCWMadsjBl1Mv-28">
          <mxGeometry x="410" y="770" width="120" height="90" as="geometry" />
        </mxCell>
        <mxCell id="jNDHMeCrCWMadsjBl1Mv-46" style="edgeStyle=orthogonalEdgeStyle;rounded=0;orthogonalLoop=1;jettySize=auto;html=1;entryX=0;entryY=0.5;entryDx=0;entryDy=0;dashed=1;fontFamily=Courier New;" edge="1" parent="jNDHMeCrCWMadsjBl1Mv-28" source="jNDHMeCrCWMadsjBl1Mv-44" target="jNDHMeCrCWMadsjBl1Mv-45">
          <mxGeometry relative="1" as="geometry" />
        </mxCell>
        <mxCell id="jNDHMeCrCWMadsjBl1Mv-47" value="&lt;b style=&quot;border-color: var(--border-color);&quot;&gt;ChatJourney&lt;br&gt;人工会话阶段&lt;/b&gt;" style="rounded=1;whiteSpace=wrap;html=1;fontFamily=Courier New;shadow=1;" vertex="1" parent="jNDHMeCrCWMadsjBl1Mv-28">
          <mxGeometry x="54.44" y="790" width="112.87" height="40" as="geometry" />
        </mxCell>
        <mxCell id="jNDHMeCrCWMadsjBl1Mv-48" value="&lt;p style=&quot;text-align: center; margin: 4px 0px 0px; text-decoration: underline;&quot;&gt;&lt;b&gt;Object: ChatJourney&lt;/b&gt;&lt;/p&gt;&lt;hr&gt;&lt;p style=&quot;margin:0px;margin-left:8px;&quot;&gt;stage = 5&lt;br&gt;state = 0&lt;br&gt;channel = 0&lt;/p&gt;" style="verticalAlign=top;align=left;overflow=fill;fontSize=12;fontFamily=Courier New;html=1;whiteSpace=wrap;fillColor=#d5e8d4;strokeColor=#82b366;shadow=1;rounded=1;" vertex="1" parent="jNDHMeCrCWMadsjBl1Mv-28">
          <mxGeometry x="50.88" y="870" width="120" height="90" as="geometry" />
        </mxCell>
        <mxCell id="jNDHMeCrCWMadsjBl1Mv-49" style="edgeStyle=orthogonalEdgeStyle;rounded=0;orthogonalLoop=1;jettySize=auto;html=1;entryX=0.5;entryY=0;entryDx=0;entryDy=0;dashed=1;fontFamily=Courier New;" edge="1" parent="jNDHMeCrCWMadsjBl1Mv-28" source="jNDHMeCrCWMadsjBl1Mv-47" target="jNDHMeCrCWMadsjBl1Mv-48">
          <mxGeometry relative="1" as="geometry" />
        </mxCell>
        <mxCell id="jNDHMeCrCWMadsjBl1Mv-50" value="查询ChatJourney" style="swimlane;startSize=20;html=1;fillColor=#dae8fc;strokeColor=#6c8ebf;gradientColor=#7ea6e0;fontFamily=Courier New;" vertex="1" parent="jNDHMeCrCWMadsjBl1Mv-25">
          <mxGeometry y="20" width="240" height="1030" as="geometry">
            <mxRectangle x="550" width="140" height="30" as="alternateBounds" />
          </mxGeometry>
        </mxCell>
        <mxCell id="jNDHMeCrCWMadsjBl1Mv-51" value="&lt;font style=&quot;&quot;&gt;&lt;font style=&quot;font-size: 12px;&quot;&gt;根据&lt;br&gt;CustomerId&lt;br&gt;Channel&lt;br&gt;ChannelId&lt;br&gt;&lt;b&gt;正在开启状态&lt;/b&gt;&lt;br&gt;查询ChatJourney记录&lt;/font&gt;&lt;br&gt;&lt;/font&gt;" style="rounded=1;whiteSpace=wrap;html=1;fontFamily=Courier New;glass=0;shadow=1;" vertex="1" parent="jNDHMeCrCWMadsjBl1Mv-50">
          <mxGeometry x="52.37" y="47.75" width="155.25" height="85" as="geometry" />
        </mxCell>
        <mxCell id="jNDHMeCrCWMadsjBl1Mv-52" value="是否查询到了ChatJourney" style="rhombus;whiteSpace=wrap;html=1;rounded=1;fontFamily=Courier New;shadow=1;" vertex="1" parent="jNDHMeCrCWMadsjBl1Mv-50">
          <mxGeometry x="32.71" y="178" width="194.57" height="80" as="geometry" />
        </mxCell>
        <mxCell id="jNDHMeCrCWMadsjBl1Mv-53" style="edgeStyle=orthogonalEdgeStyle;rounded=0;orthogonalLoop=1;jettySize=auto;html=1;entryX=0.5;entryY=0;entryDx=0;entryDy=0;fontFamily=Courier New;" edge="1" parent="jNDHMeCrCWMadsjBl1Mv-50" source="jNDHMeCrCWMadsjBl1Mv-51" target="jNDHMeCrCWMadsjBl1Mv-52">
          <mxGeometry relative="1" as="geometry">
            <mxPoint x="117.63636363636328" y="158.25467230769937" as="targetPoint" />
          </mxGeometry>
        </mxCell>
        <mxCell id="jNDHMeCrCWMadsjBl1Mv-54" value="创建ChatJourney" style="swimlane;startSize=20;html=1;fillColor=#dae8fc;strokeColor=#6c8ebf;gradientColor=#7ea6e0;fontFamily=Courier New;" vertex="1" parent="jNDHMeCrCWMadsjBl1Mv-25">
          <mxGeometry x="780" y="20" width="210" height="1030" as="geometry">
            <mxRectangle x="550" width="140" height="30" as="alternateBounds" />
          </mxGeometry>
        </mxCell>
        <mxCell id="jNDHMeCrCWMadsjBl1Mv-55" style="edgeStyle=orthogonalEdgeStyle;rounded=0;orthogonalLoop=1;jettySize=auto;html=1;entryX=0.5;entryY=0;entryDx=0;entryDy=0;dashed=1;" edge="1" parent="jNDHMeCrCWMadsjBl1Mv-54" source="jNDHMeCrCWMadsjBl1Mv-56" target="jNDHMeCrCWMadsjBl1Mv-57">
          <mxGeometry relative="1" as="geometry" />
        </mxCell>
        <mxCell id="jNDHMeCrCWMadsjBl1Mv-56" value="根据&lt;br&gt;CustomerId&lt;br&gt;Channel &lt;br&gt;ChannelId&lt;br&gt;创建一个&lt;b&gt;初始状态&lt;/b&gt;的ChatJourney" style="rounded=1;whiteSpace=wrap;html=1;fontFamily=Courier New;shadow=1;" vertex="1" parent="jNDHMeCrCWMadsjBl1Mv-54">
          <mxGeometry x="32.51" y="173" width="127.5" height="90" as="geometry" />
        </mxCell>
        <mxCell id="jNDHMeCrCWMadsjBl1Mv-57" value="&lt;p style=&quot;text-align: center; margin: 4px 0px 0px; text-decoration: underline;&quot;&gt;&lt;b&gt;Object: ChatJourney&lt;/b&gt;&lt;/p&gt;&lt;hr&gt;&lt;p style=&quot;margin:0px;margin-left:8px;&quot;&gt;stage = 0 (init)&lt;br&gt;state = 0 (start)&lt;br&gt;channel = 0 (web)&lt;/p&gt;" style="verticalAlign=top;align=left;overflow=fill;fontSize=12;fontFamily=Courier New;html=1;whiteSpace=wrap;fillColor=#d5e8d4;strokeColor=#82b366;shadow=1;rounded=1;" vertex="1" parent="jNDHMeCrCWMadsjBl1Mv-54">
          <mxGeometry x="34.39000000000001" y="310" width="124.62" height="85" as="geometry" />
        </mxCell>
        <mxCell id="jNDHMeCrCWMadsjBl1Mv-58" style="edgeStyle=orthogonalEdgeStyle;rounded=0;orthogonalLoop=1;jettySize=auto;html=1;exitX=1;exitY=0.5;exitDx=0;exitDy=0;entryX=0;entryY=0.5;entryDx=0;entryDy=0;fontFamily=Courier New;shadow=1;" edge="1" parent="jNDHMeCrCWMadsjBl1Mv-25" source="jNDHMeCrCWMadsjBl1Mv-52" target="jNDHMeCrCWMadsjBl1Mv-56">
          <mxGeometry relative="1" as="geometry" />
        </mxCell>
        <mxCell id="jNDHMeCrCWMadsjBl1Mv-59" value="&lt;b&gt;&lt;font style=&quot;font-size: 14px;&quot;&gt;否&lt;/font&gt;&lt;/b&gt;" style="edgeLabel;html=1;align=center;verticalAlign=middle;resizable=0;points=[];fontFamily=Courier New;" vertex="1" connectable="0" parent="jNDHMeCrCWMadsjBl1Mv-58">
          <mxGeometry x="-0.2357" y="-1" relative="1" as="geometry">
            <mxPoint x="-127" as="offset" />
          </mxGeometry>
        </mxCell>
        <mxCell id="jNDHMeCrCWMadsjBl1Mv-60" value="机器人阶段" style="swimlane;startSize=20;html=1;fillColor=#dae8fc;gradientColor=#7ea6e0;strokeColor=#6c8ebf;fontFamily=Courier New;" vertex="1" parent="jNDHMeCrCWMadsjBl1Mv-25">
          <mxGeometry x="990" y="20" width="340" height="1030" as="geometry">
            <mxRectangle x="550" width="140" height="30" as="alternateBounds" />
          </mxGeometry>
        </mxCell>
        <mxCell id="jNDHMeCrCWMadsjBl1Mv-61" value="" style="edgeStyle=orthogonalEdgeStyle;rounded=0;orthogonalLoop=1;jettySize=auto;html=1;fontFamily=Courier New;shadow=1;" edge="1" parent="jNDHMeCrCWMadsjBl1Mv-60" source="jNDHMeCrCWMadsjBl1Mv-62" target="jNDHMeCrCWMadsjBl1Mv-64">
          <mxGeometry relative="1" as="geometry" />
        </mxCell>
        <mxCell id="jNDHMeCrCWMadsjBl1Mv-62" value="检查渠道机器人配置" style="rounded=1;whiteSpace=wrap;html=1;fontFamily=Courier New;shadow=1;" vertex="1" parent="jNDHMeCrCWMadsjBl1Mv-60">
          <mxGeometry x="20.32" y="70" width="127.49" height="46" as="geometry" />
        </mxCell>
        <mxCell id="jNDHMeCrCWMadsjBl1Mv-63" value="&lt;b&gt;支持&lt;/b&gt;" style="edgeStyle=orthogonalEdgeStyle;rounded=0;orthogonalLoop=1;jettySize=auto;html=1;fontFamily=Courier New;" edge="1" parent="jNDHMeCrCWMadsjBl1Mv-60" source="jNDHMeCrCWMadsjBl1Mv-64" target="jNDHMeCrCWMadsjBl1Mv-66">
          <mxGeometry relative="1" as="geometry" />
        </mxCell>
        <mxCell id="jNDHMeCrCWMadsjBl1Mv-64" value="支持机器人接待" style="rhombus;whiteSpace=wrap;html=1;rounded=1;fontFamily=Courier New;shadow=1;" vertex="1" parent="jNDHMeCrCWMadsjBl1Mv-60">
          <mxGeometry x="22.189999999999998" y="180" width="123.75" height="55" as="geometry" />
        </mxCell>
        <mxCell id="jNDHMeCrCWMadsjBl1Mv-65" value="" style="edgeStyle=orthogonalEdgeStyle;rounded=0;orthogonalLoop=1;jettySize=auto;html=1;fontFamily=Courier New;" edge="1" parent="jNDHMeCrCWMadsjBl1Mv-60" source="jNDHMeCrCWMadsjBl1Mv-66" target="jNDHMeCrCWMadsjBl1Mv-69">
          <mxGeometry relative="1" as="geometry" />
        </mxCell>
        <mxCell id="jNDHMeCrCWMadsjBl1Mv-66" value="创建机器人会话&lt;br&gt;(RobotSession)" style="rounded=1;whiteSpace=wrap;html=1;fontFamily=Courier New;shadow=1;" vertex="1" parent="jNDHMeCrCWMadsjBl1Mv-60">
          <mxGeometry x="27.190000000000005" y="275" width="113.75" height="50" as="geometry" />
        </mxCell>
        <mxCell id="jNDHMeCrCWMadsjBl1Mv-67" style="edgeStyle=orthogonalEdgeStyle;rounded=0;orthogonalLoop=1;jettySize=auto;html=1;entryX=0;entryY=0.5;entryDx=0;entryDy=0;fontFamily=Courier New;" edge="1" parent="jNDHMeCrCWMadsjBl1Mv-60" source="jNDHMeCrCWMadsjBl1Mv-69" target="jNDHMeCrCWMadsjBl1Mv-70">
          <mxGeometry relative="1" as="geometry" />
        </mxCell>
        <mxCell id="jNDHMeCrCWMadsjBl1Mv-68" style="edgeStyle=orthogonalEdgeStyle;rounded=0;orthogonalLoop=1;jettySize=auto;html=1;entryX=0.5;entryY=0;entryDx=0;entryDy=0;fontFamily=Courier New;" edge="1" parent="jNDHMeCrCWMadsjBl1Mv-60" source="jNDHMeCrCWMadsjBl1Mv-69" target="jNDHMeCrCWMadsjBl1Mv-72">
          <mxGeometry relative="1" as="geometry">
            <mxPoint x="96.25500000000011" y="465" as="targetPoint" />
          </mxGeometry>
        </mxCell>
        <mxCell id="jNDHMeCrCWMadsjBl1Mv-69" value="创建ChatJourneyStage" style="rounded=1;whiteSpace=wrap;html=1;fontFamily=Courier New;shadow=1;" vertex="1" parent="jNDHMeCrCWMadsjBl1Mv-60">
          <mxGeometry x="20" y="375" width="128.13" height="40" as="geometry" />
        </mxCell>
        <mxCell id="jNDHMeCrCWMadsjBl1Mv-70" value="&lt;p style=&quot;text-align: center; margin: 4px 0px 0px; text-decoration: underline;&quot;&gt;&lt;b&gt;Object: ChatJourneyStage&lt;/b&gt;&lt;/p&gt;&lt;hr&gt;&lt;p style=&quot;margin:0px;margin-left:8px;&quot;&gt;category = 2&lt;br&gt;&lt;span style=&quot;border-color: var(--border-color);&quot;&gt;&lt;font style=&quot;font-size: 12px;&quot;&gt;chat_journey_id&lt;/font&gt;&lt;/span&gt;&amp;nbsp;= xx&lt;/p&gt;" style="verticalAlign=top;align=left;overflow=fill;fontSize=12;fontFamily=Courier New;html=1;whiteSpace=wrap;fillColor=#d5e8d4;strokeColor=#82b366;rounded=1;shadow=1;" vertex="1" parent="jNDHMeCrCWMadsjBl1Mv-60">
          <mxGeometry x="170" y="357.96999999999997" width="160" height="74.06" as="geometry" />
        </mxCell>
        <mxCell id="jNDHMeCrCWMadsjBl1Mv-71" style="edgeStyle=orthogonalEdgeStyle;rounded=0;orthogonalLoop=1;jettySize=auto;html=1;entryX=0;entryY=0.5;entryDx=0;entryDy=0;fontFamily=Courier New;" edge="1" parent="jNDHMeCrCWMadsjBl1Mv-60" source="jNDHMeCrCWMadsjBl1Mv-72" target="jNDHMeCrCWMadsjBl1Mv-73">
          <mxGeometry relative="1" as="geometry" />
        </mxCell>
        <mxCell id="jNDHMeCrCWMadsjBl1Mv-72" value="更新&lt;br&gt;ChatJourney&lt;br&gt;状态" style="rounded=1;whiteSpace=wrap;html=1;fontFamily=Courier New;" vertex="1" parent="jNDHMeCrCWMadsjBl1Mv-60">
          <mxGeometry x="36.260000000000005" y="510" width="95.62" height="50" as="geometry" />
        </mxCell>
        <mxCell id="jNDHMeCrCWMadsjBl1Mv-73" value="&lt;p style=&quot;text-align: center; margin: 4px 0px 0px; text-decoration: underline;&quot;&gt;&lt;b&gt;Object: ChatJourney&lt;/b&gt;&lt;/p&gt;&lt;hr&gt;&lt;p style=&quot;margin:0px;margin-left:8px;&quot;&gt;stage = 1&lt;br&gt;state = 0&lt;br&gt;channel = 0&lt;/p&gt;" style="verticalAlign=top;align=left;overflow=fill;fontSize=12;fontFamily=Courier New;html=1;whiteSpace=wrap;fillColor=#d5e8d4;strokeColor=#82b366;rounded=1;shadow=1;" vertex="1" parent="jNDHMeCrCWMadsjBl1Mv-60">
          <mxGeometry x="170" y="489.5" width="124.62" height="92.5" as="geometry" />
        </mxCell>
        <mxCell id="jNDHMeCrCWMadsjBl1Mv-74" style="edgeStyle=orthogonalEdgeStyle;rounded=0;orthogonalLoop=1;jettySize=auto;html=1;entryX=0;entryY=0.5;entryDx=0;entryDy=0;fontFamily=Courier New;shadow=1;" edge="1" parent="jNDHMeCrCWMadsjBl1Mv-25" source="jNDHMeCrCWMadsjBl1Mv-56" target="jNDHMeCrCWMadsjBl1Mv-62">
          <mxGeometry relative="1" as="geometry" />
        </mxCell>
        <mxCell id="jNDHMeCrCWMadsjBl1Mv-75" value="人工服务阶段" style="swimlane;startSize=20;html=1;fillColor=#dae8fc;strokeColor=#6c8ebf;gradientColor=#7ea6e0;fontFamily=Courier New;" vertex="1" parent="jNDHMeCrCWMadsjBl1Mv-25">
          <mxGeometry x="1330" y="20" width="1700" height="1030" as="geometry">
            <mxRectangle x="550" width="140" height="30" as="alternateBounds" />
          </mxGeometry>
        </mxCell>
        <mxCell id="jNDHMeCrCWMadsjBl1Mv-76" value="无人接待阶段" style="swimlane;startSize=20;html=1;fillColor=#d5e8d4;strokeColor=#82b366;gradientColor=#97d077;fontFamily=Courier New;" vertex="1" parent="jNDHMeCrCWMadsjBl1Mv-75">
          <mxGeometry x="210" y="20" width="840" height="1010" as="geometry">
            <mxRectangle x="550" width="140" height="30" as="alternateBounds" />
          </mxGeometry>
        </mxCell>
        <mxCell id="jNDHMeCrCWMadsjBl1Mv-77" value="仅无人接待" style="swimlane;startSize=20;html=1;fillColor=#fff2cc;strokeColor=#d6b656;gradientColor=#ffd966;fontFamily=Courier New;" vertex="1" parent="jNDHMeCrCWMadsjBl1Mv-76">
          <mxGeometry x="220" y="21.5" width="290" height="988.5" as="geometry">
            <mxRectangle x="550" width="140" height="30" as="alternateBounds" />
          </mxGeometry>
        </mxCell>
        <mxCell id="jNDHMeCrCWMadsjBl1Mv-78" value="" style="edgeStyle=orthogonalEdgeStyle;rounded=0;orthogonalLoop=1;jettySize=auto;html=1;" edge="1" parent="jNDHMeCrCWMadsjBl1Mv-77" source="jNDHMeCrCWMadsjBl1Mv-79" target="jNDHMeCrCWMadsjBl1Mv-84">
          <mxGeometry relative="1" as="geometry" />
        </mxCell>
        <mxCell id="jNDHMeCrCWMadsjBl1Mv-79" value="处理无人接待逻辑" style="rounded=1;whiteSpace=wrap;html=1;fontFamily=Courier New;shadow=1;" vertex="1" parent="jNDHMeCrCWMadsjBl1Mv-77">
          <mxGeometry x="18" y="257.5" width="110" height="30.5" as="geometry" />
        </mxCell>
        <mxCell id="jNDHMeCrCWMadsjBl1Mv-80" value="更新&lt;br&gt;ChatJourney&lt;br&gt;状态" style="rounded=1;whiteSpace=wrap;html=1;fontFamily=Courier New;shadow=1;" vertex="1" parent="jNDHMeCrCWMadsjBl1Mv-77">
          <mxGeometry x="25.189999999999934" y="494.75" width="95.62" height="50" as="geometry" />
        </mxCell>
        <mxCell id="jNDHMeCrCWMadsjBl1Mv-81" style="edgeStyle=orthogonalEdgeStyle;rounded=0;orthogonalLoop=1;jettySize=auto;html=1;entryX=0.5;entryY=0;entryDx=0;entryDy=0;fontFamily=Courier New;exitX=0.5;exitY=1;exitDx=0;exitDy=0;" edge="1" parent="jNDHMeCrCWMadsjBl1Mv-77" source="jNDHMeCrCWMadsjBl1Mv-84" target="jNDHMeCrCWMadsjBl1Mv-80">
          <mxGeometry relative="1" as="geometry">
            <mxPoint x="84.49500000000012" y="449.75" as="targetPoint" />
            <mxPoint x="72.99999999999966" y="399.3800000000001" as="sourcePoint" />
          </mxGeometry>
        </mxCell>
        <mxCell id="jNDHMeCrCWMadsjBl1Mv-82" value="&lt;p style=&quot;text-align: center; margin: 4px 0px 0px; text-decoration: underline;&quot;&gt;&lt;b&gt;Object: ChatJourney&lt;/b&gt;&lt;/p&gt;&lt;hr&gt;&lt;p style=&quot;margin:0px;margin-left:8px;&quot;&gt;stage = 2&lt;br&gt;state = 0&lt;br&gt;channel = 0&lt;/p&gt;" style="verticalAlign=top;align=left;overflow=fill;fontSize=12;fontFamily=Courier New;html=1;whiteSpace=wrap;fillColor=#d5e8d4;strokeColor=#82b366;rounded=1;shadow=1;" vertex="1" parent="jNDHMeCrCWMadsjBl1Mv-77">
          <mxGeometry x="152.62" y="477.25" width="124.62" height="97.88" as="geometry" />
        </mxCell>
        <mxCell id="jNDHMeCrCWMadsjBl1Mv-83" style="edgeStyle=orthogonalEdgeStyle;rounded=0;orthogonalLoop=1;jettySize=auto;html=1;entryX=0;entryY=0.5;entryDx=0;entryDy=0;fontFamily=Courier New;" edge="1" parent="jNDHMeCrCWMadsjBl1Mv-77" source="jNDHMeCrCWMadsjBl1Mv-80" target="jNDHMeCrCWMadsjBl1Mv-82">
          <mxGeometry relative="1" as="geometry" />
        </mxCell>
        <mxCell id="jNDHMeCrCWMadsjBl1Mv-84" value="无人接待状态不建立ChatJourneyStage数据&lt;br&gt;&lt;br&gt;&amp;nbsp;原因是,无人接待阶段没有需要关联的数据, 只是在ChatJourney中记录无人服务状态" style="whiteSpace=wrap;html=1;fontFamily=Courier New;rounded=1;shadow=1;" vertex="1" parent="jNDHMeCrCWMadsjBl1Mv-77">
          <mxGeometry x="13" y="353.25" width="266.62" height="65.75" as="geometry" />
        </mxCell>
        <mxCell id="jNDHMeCrCWMadsjBl1Mv-85" value="无人接待排队" style="swimlane;startSize=20;html=1;fillColor=#fff2cc;strokeColor=#d6b656;gradientColor=#ffd966;fontFamily=Courier New;" vertex="1" parent="jNDHMeCrCWMadsjBl1Mv-76">
          <mxGeometry x="510" y="21.5" width="330" height="988.5" as="geometry">
            <mxRectangle x="550" width="140" height="30" as="alternateBounds" />
          </mxGeometry>
        </mxCell>
        <mxCell id="jNDHMeCrCWMadsjBl1Mv-86" value="处理无人接待排队逻辑" style="rounded=1;whiteSpace=wrap;html=1;fontFamily=Courier New;shadow=1;" vertex="1" parent="jNDHMeCrCWMadsjBl1Mv-85">
          <mxGeometry x="13" y="58.5" width="128" height="25.38" as="geometry" />
        </mxCell>
        <mxCell id="jNDHMeCrCWMadsjBl1Mv-87" value="创建ChatJourneyStage" style="rounded=1;whiteSpace=wrap;html=1;fontFamily=Courier New;shadow=1;" vertex="1" parent="jNDHMeCrCWMadsjBl1Mv-85">
          <mxGeometry x="17.63" y="158.19" width="118.75" height="43.13" as="geometry" />
        </mxCell>
        <mxCell id="jNDHMeCrCWMadsjBl1Mv-88" style="edgeStyle=orthogonalEdgeStyle;rounded=0;orthogonalLoop=1;jettySize=auto;html=1;fontFamily=Courier New;" edge="1" parent="jNDHMeCrCWMadsjBl1Mv-85" source="jNDHMeCrCWMadsjBl1Mv-86" target="jNDHMeCrCWMadsjBl1Mv-87">
          <mxGeometry relative="1" as="geometry" />
        </mxCell>
        <mxCell id="jNDHMeCrCWMadsjBl1Mv-89" value="&lt;p style=&quot;text-align: center; margin: 4px 0px 0px; text-decoration: underline;&quot;&gt;&lt;b&gt;Object: ChatJourneyStage&lt;/b&gt;&lt;/p&gt;&lt;hr&gt;&lt;p style=&quot;margin:0px;margin-left:8px;&quot;&gt;category = 2&lt;br&gt;&lt;span style=&quot;border-color: var(--border-color);&quot;&gt;&lt;font style=&quot;font-size: 12px;&quot;&gt;chat_journey_id&lt;/font&gt;&lt;/span&gt;&amp;nbsp;= xx&lt;/p&gt;" style="verticalAlign=top;align=left;overflow=fill;fontSize=12;fontFamily=Courier New;html=1;whiteSpace=wrap;fillColor=#d5e8d4;strokeColor=#82b366;rounded=1;shadow=1;" vertex="1" parent="jNDHMeCrCWMadsjBl1Mv-85">
          <mxGeometry x="160" y="142.72000000000003" width="160" height="74.06" as="geometry" />
        </mxCell>
        <mxCell id="jNDHMeCrCWMadsjBl1Mv-90" style="edgeStyle=orthogonalEdgeStyle;rounded=0;orthogonalLoop=1;jettySize=auto;html=1;entryX=0;entryY=0.5;entryDx=0;entryDy=0;fontFamily=Courier New;" edge="1" parent="jNDHMeCrCWMadsjBl1Mv-85" source="jNDHMeCrCWMadsjBl1Mv-87" target="jNDHMeCrCWMadsjBl1Mv-89">
          <mxGeometry relative="1" as="geometry" />
        </mxCell>
        <mxCell id="jNDHMeCrCWMadsjBl1Mv-91" value="更新&lt;br&gt;ChatJourney&lt;br&gt;状态" style="rounded=1;whiteSpace=wrap;html=1;fontFamily=Courier New;shadow=1;" vertex="1" parent="jNDHMeCrCWMadsjBl1Mv-85">
          <mxGeometry x="29.069999999999936" y="294.7500000000002" width="95.62" height="50" as="geometry" />
        </mxCell>
        <mxCell id="jNDHMeCrCWMadsjBl1Mv-92" style="edgeStyle=orthogonalEdgeStyle;rounded=0;orthogonalLoop=1;jettySize=auto;html=1;entryX=0.5;entryY=0;entryDx=0;entryDy=0;fontFamily=Courier New;" edge="1" parent="jNDHMeCrCWMadsjBl1Mv-85" source="jNDHMeCrCWMadsjBl1Mv-87" target="jNDHMeCrCWMadsjBl1Mv-91">
          <mxGeometry relative="1" as="geometry">
            <mxPoint x="76.87500000000011" y="249.75000000000023" as="targetPoint" />
          </mxGeometry>
        </mxCell>
        <mxCell id="jNDHMeCrCWMadsjBl1Mv-93" value="&lt;p style=&quot;text-align: center; margin: 4px 0px 0px; text-decoration: underline;&quot;&gt;&lt;b&gt;Object: ChatJourney&lt;/b&gt;&lt;/p&gt;&lt;hr&gt;&lt;p style=&quot;margin:0px;margin-left:8px;&quot;&gt;stage = 3&lt;br&gt;state = 0&lt;br&gt;channel = 0&lt;/p&gt;" style="verticalAlign=top;align=left;overflow=fill;fontSize=12;fontFamily=Courier New;html=1;whiteSpace=wrap;fillColor=#d5e8d4;strokeColor=#82b366;rounded=1;shadow=1;" vertex="1" parent="jNDHMeCrCWMadsjBl1Mv-85">
          <mxGeometry x="160" y="273.25" width="124.62" height="91.76" as="geometry" />
        </mxCell>
        <mxCell id="jNDHMeCrCWMadsjBl1Mv-94" style="edgeStyle=orthogonalEdgeStyle;rounded=0;orthogonalLoop=1;jettySize=auto;html=1;entryX=0;entryY=0.5;entryDx=0;entryDy=0;fontFamily=Courier New;" edge="1" parent="jNDHMeCrCWMadsjBl1Mv-85" source="jNDHMeCrCWMadsjBl1Mv-91" target="jNDHMeCrCWMadsjBl1Mv-93">
          <mxGeometry relative="1" as="geometry" />
        </mxCell>
        <mxCell id="jNDHMeCrCWMadsjBl1Mv-95" value="&lt;b&gt;不支持&lt;/b&gt;" style="edgeStyle=orthogonalEdgeStyle;rounded=0;orthogonalLoop=1;jettySize=auto;html=1;entryX=0;entryY=0.5;entryDx=0;entryDy=0;exitX=1;exitY=0.5;exitDx=0;exitDy=0;fontFamily=Courier New;" edge="1" parent="jNDHMeCrCWMadsjBl1Mv-76" source="jNDHMeCrCWMadsjBl1Mv-98" target="jNDHMeCrCWMadsjBl1Mv-79">
          <mxGeometry x="-0.4751" relative="1" as="geometry">
            <mxPoint x="240" y="294.87" as="targetPoint" />
            <mxPoint y="1" as="offset" />
          </mxGeometry>
        </mxCell>
        <mxCell id="jNDHMeCrCWMadsjBl1Mv-96" style="edgeStyle=orthogonalEdgeStyle;rounded=0;orthogonalLoop=1;jettySize=auto;html=1;entryX=0;entryY=0.5;entryDx=0;entryDy=0;fontFamily=Courier New;exitX=0.5;exitY=0;exitDx=0;exitDy=0;" edge="1" parent="jNDHMeCrCWMadsjBl1Mv-76" source="jNDHMeCrCWMadsjBl1Mv-98" target="jNDHMeCrCWMadsjBl1Mv-86">
          <mxGeometry relative="1" as="geometry">
            <mxPoint x="550" y="294.87" as="targetPoint" />
          </mxGeometry>
        </mxCell>
        <mxCell id="jNDHMeCrCWMadsjBl1Mv-97" value="&lt;b&gt;支持&lt;/b&gt;" style="edgeLabel;html=1;align=center;verticalAlign=middle;resizable=0;points=[];fontFamily=Courier New;" vertex="1" connectable="0" parent="jNDHMeCrCWMadsjBl1Mv-96">
          <mxGeometry x="-0.1922" y="1" relative="1" as="geometry">
            <mxPoint x="-87" y="106" as="offset" />
          </mxGeometry>
        </mxCell>
        <mxCell id="jNDHMeCrCWMadsjBl1Mv-98" value="支持不在线排队" style="rhombus;whiteSpace=wrap;html=1;rounded=1;shadow=1;fontFamily=Courier New;" vertex="1" parent="jNDHMeCrCWMadsjBl1Mv-76">
          <mxGeometry x="30" y="254.37" width="120" height="80" as="geometry" />
        </mxCell>
        <mxCell id="jNDHMeCrCWMadsjBl1Mv-99" value="人工座席判断" style="swimlane;startSize=20;html=1;fillColor=#d5e8d4;strokeColor=#82b366;gradientColor=#97d077;fontFamily=Courier New;" vertex="1" parent="jNDHMeCrCWMadsjBl1Mv-75">
          <mxGeometry y="20" width="210" height="1010" as="geometry">
            <mxRectangle x="550" width="140" height="30" as="alternateBounds" />
          </mxGeometry>
        </mxCell>
        <mxCell id="jNDHMeCrCWMadsjBl1Mv-100" value="" style="edgeStyle=orthogonalEdgeStyle;rounded=0;orthogonalLoop=1;jettySize=auto;html=1;fontFamily=Courier New;" edge="1" parent="jNDHMeCrCWMadsjBl1Mv-99" source="jNDHMeCrCWMadsjBl1Mv-101" target="jNDHMeCrCWMadsjBl1Mv-103">
          <mxGeometry relative="1" as="geometry" />
        </mxCell>
        <mxCell id="jNDHMeCrCWMadsjBl1Mv-101" value="判断人工在线状态" style="rounded=1;whiteSpace=wrap;html=1;fontFamily=Courier New;shadow=1;" vertex="1" parent="jNDHMeCrCWMadsjBl1Mv-99">
          <mxGeometry x="11" y="163.87" width="127.49" height="46" as="geometry" />
        </mxCell>
        <mxCell id="jNDHMeCrCWMadsjBl1Mv-102" value="&lt;b&gt;有座席在线&lt;/b&gt;" style="edgeStyle=orthogonalEdgeStyle;rounded=0;orthogonalLoop=1;jettySize=auto;html=1;fontFamily=Courier New;" edge="1" parent="jNDHMeCrCWMadsjBl1Mv-99" source="jNDHMeCrCWMadsjBl1Mv-103" target="jNDHMeCrCWMadsjBl1Mv-104">
          <mxGeometry relative="1" as="geometry" />
        </mxCell>
        <mxCell id="jNDHMeCrCWMadsjBl1Mv-103" value="是否有座席在线" style="rhombus;whiteSpace=wrap;html=1;rounded=1;fontFamily=Courier New;shadow=1;" vertex="1" parent="jNDHMeCrCWMadsjBl1Mv-99">
          <mxGeometry x="16.61" y="263.87" width="116.26" height="61" as="geometry" />
        </mxCell>
        <mxCell id="jNDHMeCrCWMadsjBl1Mv-104" value="判断座席忙碌状态" style="rhombus;whiteSpace=wrap;html=1;rounded=1;fontFamily=Courier New;shadow=1;" vertex="1" parent="jNDHMeCrCWMadsjBl1Mv-99">
          <mxGeometry x="16.610000000000007" y="623.87" width="116.26" height="61" as="geometry" />
        </mxCell>
        <mxCell id="jNDHMeCrCWMadsjBl1Mv-105" value="&lt;b&gt;全部&lt;br&gt;不在线&lt;/b&gt;" style="edgeStyle=orthogonalEdgeStyle;rounded=0;orthogonalLoop=1;jettySize=auto;html=1;entryX=0;entryY=0.5;entryDx=0;entryDy=0;exitX=0.954;exitY=0.47;exitDx=0;exitDy=0;exitPerimeter=0;fontFamily=Courier New;" edge="1" parent="jNDHMeCrCWMadsjBl1Mv-75" source="jNDHMeCrCWMadsjBl1Mv-103" target="jNDHMeCrCWMadsjBl1Mv-98">
          <mxGeometry x="-0.2036" y="1" relative="1" as="geometry">
            <mxPoint x="250" y="314.37" as="targetPoint" />
            <Array as="points">
              <mxPoint x="128" y="314.87" />
              <mxPoint x="170" y="314.87" />
              <mxPoint x="170" y="313.87" />
            </Array>
            <mxPoint as="offset" />
          </mxGeometry>
        </mxCell>
        <mxCell id="jNDHMeCrCWMadsjBl1Mv-106" value="进入排队" style="swimlane;startSize=20;html=1;fillColor=#d5e8d4;strokeColor=#82b366;gradientColor=#97d077;fontFamily=Courier New;" vertex="1" parent="jNDHMeCrCWMadsjBl1Mv-75">
          <mxGeometry x="1050" y="20" width="330" height="1010" as="geometry">
            <mxRectangle x="550" width="140" height="30" as="alternateBounds" />
          </mxGeometry>
        </mxCell>
        <mxCell id="jNDHMeCrCWMadsjBl1Mv-107" style="edgeStyle=orthogonalEdgeStyle;rounded=0;orthogonalLoop=1;jettySize=auto;html=1;entryX=0.5;entryY=0;entryDx=0;entryDy=0;shadow=1;" edge="1" parent="jNDHMeCrCWMadsjBl1Mv-106" source="jNDHMeCrCWMadsjBl1Mv-108" target="jNDHMeCrCWMadsjBl1Mv-109">
          <mxGeometry relative="1" as="geometry" />
        </mxCell>
        <mxCell id="jNDHMeCrCWMadsjBl1Mv-108" value="进行排队处理" style="rounded=1;whiteSpace=wrap;html=1;fontFamily=Courier New;shadow=1;" vertex="1" parent="jNDHMeCrCWMadsjBl1Mv-106">
          <mxGeometry x="18.5" y="684.87" width="127.49" height="46" as="geometry" />
        </mxCell>
        <mxCell id="jNDHMeCrCWMadsjBl1Mv-109" value="创建ChatJourneyStage" style="rounded=1;whiteSpace=wrap;html=1;fontFamily=Courier New;shadow=1;" vertex="1" parent="jNDHMeCrCWMadsjBl1Mv-106">
          <mxGeometry x="23.5" y="772.8399999999998" width="118.75" height="43.13" as="geometry" />
        </mxCell>
        <mxCell id="jNDHMeCrCWMadsjBl1Mv-110" value="&lt;p style=&quot;text-align: center; margin: 4px 0px 0px; text-decoration: underline;&quot;&gt;&lt;b&gt;Object: ChatJourneyStage&lt;/b&gt;&lt;/p&gt;&lt;hr&gt;&lt;p style=&quot;margin:0px;margin-left:8px;&quot;&gt;category = 2&lt;br&gt;&lt;span style=&quot;border-color: var(--border-color);&quot;&gt;&lt;font style=&quot;font-size: 12px;&quot;&gt;chat_journey_id&lt;/font&gt;&lt;/span&gt;&amp;nbsp;= xx&lt;/p&gt;" style="verticalAlign=top;align=left;overflow=fill;fontSize=12;fontFamily=Courier New;html=1;whiteSpace=wrap;fillColor=#d5e8d4;strokeColor=#82b366;shadow=1;rounded=1;" vertex="1" parent="jNDHMeCrCWMadsjBl1Mv-106">
          <mxGeometry x="165.8699999999999" y="757.37" width="160" height="74.06" as="geometry" />
        </mxCell>
        <mxCell id="jNDHMeCrCWMadsjBl1Mv-111" style="edgeStyle=orthogonalEdgeStyle;rounded=0;orthogonalLoop=1;jettySize=auto;html=1;entryX=0;entryY=0.5;entryDx=0;entryDy=0;fontFamily=Courier New;shadow=1;" edge="1" parent="jNDHMeCrCWMadsjBl1Mv-106" source="jNDHMeCrCWMadsjBl1Mv-109" target="jNDHMeCrCWMadsjBl1Mv-110">
          <mxGeometry relative="1" as="geometry" />
        </mxCell>
        <mxCell id="jNDHMeCrCWMadsjBl1Mv-112" value="更新&lt;br&gt;ChatJourney&lt;br&gt;状态" style="rounded=1;whiteSpace=wrap;html=1;fontFamily=Courier New;shadow=1;" vertex="1" parent="jNDHMeCrCWMadsjBl1Mv-106">
          <mxGeometry x="34.940000000000055" y="909.4000000000001" width="95.62" height="50" as="geometry" />
        </mxCell>
        <mxCell id="jNDHMeCrCWMadsjBl1Mv-113" style="edgeStyle=orthogonalEdgeStyle;rounded=0;orthogonalLoop=1;jettySize=auto;html=1;entryX=0.5;entryY=0;entryDx=0;entryDy=0;fontFamily=Courier New;shadow=1;" edge="1" parent="jNDHMeCrCWMadsjBl1Mv-106" source="jNDHMeCrCWMadsjBl1Mv-109" target="jNDHMeCrCWMadsjBl1Mv-112">
          <mxGeometry relative="1" as="geometry">
            <mxPoint x="82.74500000000012" y="864.4000000000001" as="targetPoint" />
          </mxGeometry>
        </mxCell>
        <mxCell id="jNDHMeCrCWMadsjBl1Mv-114" value="&lt;p style=&quot;text-align: center; margin: 4px 0px 0px; text-decoration: underline;&quot;&gt;&lt;b&gt;Object: ChatJourney&lt;/b&gt;&lt;/p&gt;&lt;hr&gt;&lt;p style=&quot;margin:0px;margin-left:8px;&quot;&gt;stage = 4&lt;br&gt;state = 0&lt;br&gt;channel = 0&lt;/p&gt;" style="verticalAlign=top;align=left;overflow=fill;fontSize=12;fontFamily=Courier New;html=1;whiteSpace=wrap;fillColor=#d5e8d4;strokeColor=#82b366;shadow=1;rounded=1;" vertex="1" parent="jNDHMeCrCWMadsjBl1Mv-106">
          <mxGeometry x="165.87" y="886.6700000000001" width="124.62" height="95.47" as="geometry" />
        </mxCell>
        <mxCell id="jNDHMeCrCWMadsjBl1Mv-115" style="edgeStyle=orthogonalEdgeStyle;rounded=0;orthogonalLoop=1;jettySize=auto;html=1;entryX=0;entryY=0.5;entryDx=0;entryDy=0;fontFamily=Courier New;shadow=1;" edge="1" parent="jNDHMeCrCWMadsjBl1Mv-106" source="jNDHMeCrCWMadsjBl1Mv-112" target="jNDHMeCrCWMadsjBl1Mv-114">
          <mxGeometry relative="1" as="geometry" />
        </mxCell>
        <mxCell id="jNDHMeCrCWMadsjBl1Mv-116" value="&lt;b&gt;全部忙碌&lt;/b&gt;" style="edgeStyle=orthogonalEdgeStyle;rounded=0;orthogonalLoop=1;jettySize=auto;html=1;exitX=0.5;exitY=1;exitDx=0;exitDy=0;entryX=0;entryY=0.5;entryDx=0;entryDy=0;fontFamily=Courier New;" edge="1" parent="jNDHMeCrCWMadsjBl1Mv-75" source="jNDHMeCrCWMadsjBl1Mv-104" target="jNDHMeCrCWMadsjBl1Mv-108">
          <mxGeometry x="-0.7477" relative="1" as="geometry">
            <mxPoint as="offset" />
          </mxGeometry>
        </mxCell>
        <mxCell id="jNDHMeCrCWMadsjBl1Mv-117" style="edgeStyle=orthogonalEdgeStyle;rounded=0;orthogonalLoop=1;jettySize=auto;html=1;entryX=0;entryY=0.5;entryDx=0;entryDy=0;fontFamily=Courier New;exitX=1;exitY=0.5;exitDx=0;exitDy=0;shadow=1;" edge="1" parent="jNDHMeCrCWMadsjBl1Mv-25" source="jNDHMeCrCWMadsjBl1Mv-64" target="jNDHMeCrCWMadsjBl1Mv-101">
          <mxGeometry relative="1" as="geometry">
            <mxPoint x="1149.13" y="352.5" as="sourcePoint" />
            <mxPoint x="1391" y="353" as="targetPoint" />
          </mxGeometry>
        </mxCell>
        <mxCell id="jNDHMeCrCWMadsjBl1Mv-118" value="&lt;b&gt;不支持&lt;/b&gt;" style="edgeLabel;html=1;align=center;verticalAlign=middle;resizable=0;points=[];fontFamily=Courier New;" vertex="1" connectable="0" parent="jNDHMeCrCWMadsjBl1Mv-117">
          <mxGeometry x="-0.1613" y="-2" relative="1" as="geometry">
            <mxPoint x="-31" y="-2" as="offset" />
          </mxGeometry>
        </mxCell>
        <mxCell id="jNDHMeCrCWMadsjBl1Mv-119" value="进入会话" style="swimlane;startSize=20;html=1;fillColor=#d5e8d4;strokeColor=#82b366;gradientColor=#97d077;fontFamily=Courier New;" vertex="1" parent="1">
          <mxGeometry x="1520" y="2160" width="320" height="1010" as="geometry">
            <mxRectangle x="550" width="140" height="30" as="alternateBounds" />
          </mxGeometry>
        </mxCell>
        <mxCell id="jNDHMeCrCWMadsjBl1Mv-120" style="edgeStyle=orthogonalEdgeStyle;rounded=0;orthogonalLoop=1;jettySize=auto;html=1;entryX=0.5;entryY=0;entryDx=0;entryDy=0;shadow=1;" edge="1" parent="jNDHMeCrCWMadsjBl1Mv-119" source="jNDHMeCrCWMadsjBl1Mv-121" target="jNDHMeCrCWMadsjBl1Mv-122">
          <mxGeometry relative="1" as="geometry" />
        </mxCell>
        <mxCell id="jNDHMeCrCWMadsjBl1Mv-121" value="进行建立会话处理" style="rounded=1;whiteSpace=wrap;html=1;fontFamily=Courier New;shadow=1;" vertex="1" parent="jNDHMeCrCWMadsjBl1Mv-119">
          <mxGeometry x="5.129999999999999" y="633.87" width="127.49" height="46" as="geometry" />
        </mxCell>
        <mxCell id="jNDHMeCrCWMadsjBl1Mv-122" value="创建ChatJourneyStage" style="rounded=1;whiteSpace=wrap;html=1;fontFamily=Courier New;shadow=1;" vertex="1" parent="jNDHMeCrCWMadsjBl1Mv-119">
          <mxGeometry x="10.129999999999999" y="721.8399999999998" width="118.75" height="43.13" as="geometry" />
        </mxCell>
        <mxCell id="jNDHMeCrCWMadsjBl1Mv-123" value="&lt;p style=&quot;text-align: center; margin: 4px 0px 0px; text-decoration: underline;&quot;&gt;&lt;b&gt;Object: ChatJourneyStage&lt;/b&gt;&lt;/p&gt;&lt;hr&gt;&lt;p style=&quot;margin:0px;margin-left:8px;&quot;&gt;category = 2&lt;br&gt;&lt;span style=&quot;border-color: var(--border-color);&quot;&gt;&lt;font style=&quot;font-size: 12px;&quot;&gt;chat_journey_id&lt;/font&gt;&lt;/span&gt;&amp;nbsp;= xx&lt;/p&gt;" style="verticalAlign=top;align=left;overflow=fill;fontSize=12;fontFamily=Courier New;html=1;whiteSpace=wrap;fillColor=#d5e8d4;strokeColor=#82b366;shadow=1;rounded=1;" vertex="1" parent="jNDHMeCrCWMadsjBl1Mv-119">
          <mxGeometry x="152.4999999999999" y="706.37" width="160" height="74.06" as="geometry" />
        </mxCell>
        <mxCell id="jNDHMeCrCWMadsjBl1Mv-124" style="edgeStyle=orthogonalEdgeStyle;rounded=0;orthogonalLoop=1;jettySize=auto;html=1;entryX=0;entryY=0.5;entryDx=0;entryDy=0;fontFamily=Courier New;shadow=1;" edge="1" parent="jNDHMeCrCWMadsjBl1Mv-119" source="jNDHMeCrCWMadsjBl1Mv-122" target="jNDHMeCrCWMadsjBl1Mv-123">
          <mxGeometry relative="1" as="geometry" />
        </mxCell>
        <mxCell id="jNDHMeCrCWMadsjBl1Mv-125" value="更新&lt;br&gt;ChatJourney&lt;br&gt;状态" style="rounded=1;whiteSpace=wrap;html=1;fontFamily=Courier New;shadow=1;" vertex="1" parent="jNDHMeCrCWMadsjBl1Mv-119">
          <mxGeometry x="21.570000000000054" y="858.4000000000001" width="95.62" height="50" as="geometry" />
        </mxCell>
        <mxCell id="jNDHMeCrCWMadsjBl1Mv-126" style="edgeStyle=orthogonalEdgeStyle;rounded=0;orthogonalLoop=1;jettySize=auto;html=1;entryX=0.5;entryY=0;entryDx=0;entryDy=0;fontFamily=Courier New;shadow=1;" edge="1" parent="jNDHMeCrCWMadsjBl1Mv-119" source="jNDHMeCrCWMadsjBl1Mv-122" target="jNDHMeCrCWMadsjBl1Mv-125">
          <mxGeometry relative="1" as="geometry">
            <mxPoint x="69.37500000000011" y="813.4000000000002" as="targetPoint" />
          </mxGeometry>
        </mxCell>
        <mxCell id="jNDHMeCrCWMadsjBl1Mv-127" value="&lt;p style=&quot;text-align: center; margin: 4px 0px 0px; text-decoration: underline;&quot;&gt;&lt;b&gt;Object: ChatJourney&lt;/b&gt;&lt;/p&gt;&lt;hr&gt;&lt;p style=&quot;margin:0px;margin-left:8px;&quot;&gt;stage = 5&lt;br&gt;state = 0&lt;br&gt;channel = 0&lt;/p&gt;" style="verticalAlign=top;align=left;overflow=fill;fontSize=12;fontFamily=Courier New;html=1;whiteSpace=wrap;fillColor=#d5e8d4;strokeColor=#82b366;shadow=1;rounded=1;" vertex="1" parent="jNDHMeCrCWMadsjBl1Mv-119">
          <mxGeometry x="152.5" y="835.67" width="124.62" height="95.47" as="geometry" />
        </mxCell>
        <mxCell id="jNDHMeCrCWMadsjBl1Mv-128" style="edgeStyle=orthogonalEdgeStyle;rounded=0;orthogonalLoop=1;jettySize=auto;html=1;entryX=0;entryY=0.5;entryDx=0;entryDy=0;fontFamily=Courier New;shadow=1;" edge="1" parent="jNDHMeCrCWMadsjBl1Mv-119" source="jNDHMeCrCWMadsjBl1Mv-125" target="jNDHMeCrCWMadsjBl1Mv-127">
          <mxGeometry relative="1" as="geometry" />
        </mxCell>
        <mxCell id="jNDHMeCrCWMadsjBl1Mv-129" value="&lt;b&gt;有座席在线&lt;/b&gt;" style="edgeStyle=orthogonalEdgeStyle;rounded=0;orthogonalLoop=1;jettySize=auto;html=1;fontFamily=Courier New;entryX=0;entryY=0.5;entryDx=0;entryDy=0;exitX=1;exitY=0.5;exitDx=0;exitDy=0;" edge="1" parent="1" source="jNDHMeCrCWMadsjBl1Mv-104" target="jNDHMeCrCWMadsjBl1Mv-121">
          <mxGeometry x="-0.9223" relative="1" as="geometry">
            <mxPoint x="180" y="2913.87" as="sourcePoint" />
            <mxPoint x="214.69999999999982" y="2925.37" as="targetPoint" />
            <Array as="points">
              <mxPoint x="273" y="2816.87" />
            </Array>
            <mxPoint as="offset" />
          </mxGeometry>
        </mxCell>
      </root>
    </mxGraphModel>
  </diagram>
</mxfile>
